<?xml version="1.0" encoding="iso-8859-1"?>
<!-- Generator: Adobe Illustrator 19.0.0, SVG Export Plug-In . SVG Version: 6.00 Build 0)  -->
<svg version="1.1" id="Capa_1" xmlns="http://www.w3.org/2000/svg" xmlns:xlink="http://www.w3.org/1999/xlink" x="0px" y="0px"
	 viewBox="0 0 512.001 512.001" style="enable-background:new 0 0 512.001 512.001;" xml:space="preserve">
<g>
	<g>
		<path d="M405,257.002c-33.084,0-60,26.916-60,60c0,33.084,26.916,60,60,60h85c0.339,0,0.67-0.034,1.005-0.051
			c0.332,0.016,0.659,0.05,0.995,0.05c11.046,0,20-8.954,20-20v-157c0-26.626-13.087-50.241-33.155-64.79l-68.04-111.62
			c-2.774-4.552-7.251-7.808-12.437-9.044c-5.186-1.238-10.65-0.353-15.181,2.457L333.01,48.12L310.382,9.826
			c-2.721-4.604-7.171-7.926-12.358-9.226c-5.186-1.3-10.679-0.467-15.248,2.309L90.109,120.001H60
			c-10.861,0-19.728-8.702-19.994-19.5c0.266-10.798,9.133-19.5,19.994-19.5h37c11.046,0,20-8.954,20-20s-8.954-20-20-20H60
			c-28.298,0-52.081,19.694-58.37,46.095C0.584,89.522,0,92.192,0,95.001v5v1v331c0,44.112,35.888,80,80,80h352
			c34.49,0,64.993-21.971,75.901-54.671c3.496-10.478-2.165-21.806-12.643-25.301c-10.477-3.495-21.806,2.165-25.301,12.643
			c-5.453,16.346-20.706,27.329-37.957,27.329H80c-22.056,0-40-17.944-40-40V156.57c6.259,2.22,12.99,3.431,20,3.431h372
			c22.056,0,40,17.944,40,40v57.001H405z M472,337.001h-67c-11.028,0.001-20-8.971-20-20c0-11.028,8.972-20,20-20h67V337.001z
			 M167.128,120.002l119.119-72.393l21.297,36.041c0.409,0.985,0.879,1.956,1.459,2.892c0.435,0.701,0.917,1.354,1.42,1.982
			l18.6,31.478H167.128z M375.485,120.001l-22.121-37.436L387.14,61.62l35.588,58.381H375.485z"/>
	</g>
</g>
<g>
</g>
<g>
</g>
<g>
</g>
<g>
</g>
<g>
</g>
<g>
</g>
<g>
</g>
<g>
</g>
<g>
</g>
<g>
</g>
<g>
</g>
<g>
</g>
<g>
</g>
<g>
</g>
<g>
</g>
</svg>
